<?xml version="1.0" encoding="UTF-8" standalone="no"?>
<!DOCTYPE svg PUBLIC "-//W3C//DTD SVG 1.0//EN" "http://www.w3.org/TR/2001/REC-SVG-20010904/DTD/svg10.dtd">
<!-- Generiert durch Microsoft Visio 11.0, SVG Export, v1.0 Cocpit.svg Page-1 -->
<svg xmlns="http://www.w3.org/2000/svg" xmlns:xlink="http://www.w3.org/1999/xlink" xmlns:ev="http://www.w3.org/2001/xml-events"
		xmlns:v="http://schemas.microsoft.com/visio/2003/SVGExtensions/" width="3.42941in" height="3.20352in"
		viewBox="0 0 246.917 230.653" xml:space="preserve" color-interpolation-filters="sRGB" class="st7">
	<v:documentProperties v:langID="1031" v:metric="true" v:viewMarkup="false">
		<v:userDefs>
			<v:ud v:nameU="msvNoAutoConnect" v:val="VT0(1):26"/>
		</v:userDefs>
	</v:documentProperties>

	<style type="text/css">
	<![CDATA[
		.st1 {fill:#e8eef7;stroke:none;stroke-linecap:round;stroke-linejoin:round;stroke-width:0.24}
		.st2 {fill:#92d050;stroke:none;stroke-linecap:round;stroke-linejoin:round;stroke-width:0.24}
		.st3 {fill:#923931;stroke:none;stroke-linecap:round;stroke-linejoin:round;stroke-width:0.24}
		.st4 {fill:#5880b3;stroke:none;stroke-linecap:round;stroke-linejoin:round;stroke-width:0.24}
		.st5 {fill:#f5c45c;stroke:none;stroke-linecap:round;stroke-linejoin:round;stroke-width:0.24}
		.st6 {fill:#7e649e;stroke:none;stroke-linecap:round;stroke-linejoin:round;stroke-width:0.24}
		.st7 {fill:none;fill-rule:evenodd;font-size:12px;overflow:visible;stroke-linecap:square;stroke-miterlimit:3}
	]]>
	</style>

	<g v:mID="0" v:index="1" v:groupContext="foregroundPage">
		<title>Page-1</title>
		<v:pageProperties v:drawingScale="0.0393701" v:pageScale="0.0393701" v:drawingUnits="24" v:shadowOffsetX="8.50394"
				v:shadowOffsetY="-8.50394"/>
		<g id="group1-1" transform="translate(19.9941,-18.24)" v:mID="1" v:groupContext="group">
			<title>Tabelle.1</title>
			<g id="shape2-2" v:mID="2" v:groupContext="shape" transform="translate(102.047,-138.898)">
				<title>Rechteck</title>
				<v:userDefs>
					<v:ud v:nameU="visVersion" v:val="VT0(14):26"/>
				</v:userDefs>
				<rect x="0" y="190.968" width="5.66929" height="39.685" class="st1"/>
			</g>
			<g id="shape3-4" v:mID="3" v:groupContext="shape" transform="translate(93.5433,-171.496)">
				<title>Quadrat</title>
				<v:userDefs>
					<v:ud v:nameU="visVersion" v:val="VT0(14):26"/>
				</v:userDefs>
				<rect x="0" y="207.976" width="22.6772" height="22.6772" class="st2"/>
			</g>
			<g id="shape4-6" v:mID="4" v:groupContext="shape" transform="translate(375.22,134.275) rotate(90)">
				<title>Rechteck.15</title>
				<v:userDefs>
					<v:ud v:nameU="visVersion" v:val="VT0(14):26"/>
				</v:userDefs>
				<rect x="0" y="181.047" width="5.66929" height="49.6063" class="st1"/>
			</g>
			<g id="shape5-8" v:mID="5" v:groupContext="shape" transform="translate(184.252,-82.2047)">
				<title>Dreieck</title>
				<v:userDefs>
					<v:ud v:nameU="visVersion" v:val="VT0(14):26"/>
				</v:userDefs>
				<path d="M24.43 230.65 L11.34 207.98 L-1.75 230.65 L24.43 230.65 Z" class="st3"/>
			</g>
			<g id="shape6-10" v:mID="6" v:groupContext="shape" transform="translate(239.157,125.771) rotate(90)">
				<title>Rechteck.18</title>
				<v:userDefs>
					<v:ud v:nameU="visVersion" v:val="VT0(14):26"/>
				</v:userDefs>
				<rect x="0" y="179.63" width="5.66929" height="51.0236" class="st1"/>
			</g>
			<g id="shape7-12" v:mID="7" v:groupContext="shape" transform="translate(1.39888E-014,-90.7087)">
				<title>Dreieck.8</title>
				<v:userDefs>
					<v:ud v:nameU="visVersion" v:val="VT0(14):26"/>
				</v:userDefs>
				<path d="M24.43 230.65 L11.34 207.98 L-1.75 230.65 L24.43 230.65 Z" class="st3"/>
			</g>
			<g id="shape8-14" v:mID="8" v:groupContext="shape" transform="translate(82.2047,-14.1732)">
				<title>Rechteck.19</title>
				<v:userDefs>
					<v:ud v:nameU="visVersion" v:val="VT0(14):26"/>
				</v:userDefs>
				<rect x="0" y="190.968" width="5.66929" height="39.685" class="st1"/>
			</g>
			<g id="shape9-16" v:mID="9" v:groupContext="shape" transform="translate(73.7008,5.68434E-014)">
				<title>Kreis.10</title>
				<v:userDefs>
					<v:ud v:nameU="visVersion" v:val="VT0(14):26"/>
				</v:userDefs>
				<path d="M0 219.31 A11.3386 11.3386 0 0 1 22.68 219.31 A11.3386 11.3386 0 1 1 0 219.31 Z" class="st4"/>
			</g>
			<g id="shape10-18" v:mID="10" v:groupContext="shape" transform="translate(38.2677,-136.063)">
				<title>Tabelle.10</title>
				<path d="M5.67 224.42 L5.67 211.38 a0.566929 0.566929 -180 0 0 -0.566929 -0.566929 L0.57 210.81 a0.566929 0.566929
							 -180 0 0 -0.566929 0.566929 L0 224.98 L0 227.82 L0 230.09 a0.566929 0.566929 -180 0 0 0.566929 0.566929
							 L49.04 230.65 a0.566929 0.566929 -180 0 0 0.566929 -0.566929 L49.61 225.55 a0.566929 0.566929 -180 0
							 0 -0.566929 -0.566929 L6.24 224.98 a0.566929 0.566929 0 0 1 -0.566929 -0.566929 Z" class="st1"/>
			</g>
			<g id="shape11-20" v:mID="11" v:groupContext="shape" transform="translate(133.228,-130.394)">
				<title>Tabelle.11</title>
				<path d="M22.11 224.98 L0.57 224.98 a0.566929 0.566929 -180 0 0 -0.566929 0.566929 L0 230.09 a0.566929 0.566929 -180
							 0 0 0.566929 0.566929 L22.68 230.65 L27.78 230.65 a0.566929 0.566929 -180 0 0 0.566929 -0.566929 L28.35
							 224.98 L28.35 191.54 a0.566929 0.566929 -180 0 0 -0.566929 -0.566929 L23.24 190.97 a0.566929 0.566929
							 -180 0 0 -0.566929 0.566929 L22.68 224.42 a0.566929 0.566929 0 0 1 -0.566929 0.566929 Z" class="st1"/>
			</g>
			<g id="shape12-22" v:mID="12" v:groupContext="shape" transform="translate(147.402,-158.74)">
				<title>Kreis</title>
				<v:userDefs>
					<v:ud v:nameU="visVersion" v:val="VT0(14):26"/>
				</v:userDefs>
				<path d="M0 219.31 A11.3386 11.3386 0 0 1 22.68 219.31 A11.3386 11.3386 0 1 1 0 219.31 Z" class="st4"/>
			</g>
			<g id="shape13-24" v:mID="13" v:groupContext="shape" transform="translate(20.5512,-36.8504)">
				<title>Tabelle.13</title>
				<path d="M5.67 199.47 L0.57 199.47 a0.566929 0.566929 -180 0 0 -0.566929 0.566929 L0 205.14 L0 230.09 a0.566929 0.566929
							 -180 0 0 0.566929 0.566929 L5.1 230.65 a0.566929 0.566929 -180 0 0 0.566929 -0.566929 L5.67 205.71 a0.566929
							 0.566929 0 0 1 0.566929 -0.566929 L49.04 205.14 a0.566929 0.566929 -180 0 0 0.566929 -0.566929 L49.61
							 200.04 a0.566929 0.566929 -180 0 0 -0.566929 -0.566929 L5.67 199.47 Z" class="st1"/>
			</g>
			<g id="shape14-26" v:mID="14" v:groupContext="shape" transform="translate(13.1102,-25.1575)">
				<title>Sechseck</title>
				<v:userDefs>
					<v:ud v:nameU="visVersion" v:val="VT0(14):26"/>
				</v:userDefs>
				<path d="M16.21 210.1 L4.34 210.1 L-1.59 220.38 L4.34 230.65 L16.21 230.65 L22.14 220.38 L16.21 210.1 Z"
						class="st5"/>
			</g>
			<g id="shape15-28" v:mID="15" v:groupContext="shape" transform="translate(119.764,-24.0945)">
				<title>Tabelle.15</title>
				<path d="M48.05 230.65 L52.58 230.65 a0.566929 0.566929 -180 0 0 0.566929 -0.566929 L53.15 191.54 a0.566929 0.566929
							 -180 0 0 -0.566929 -0.566929 L49.61 190.97 L47.48 190.97 L0.57 190.97 a0.566929 0.566929 -180 0 0 -0.566929
							 0.566929 L0 196.07 a0.566929 0.566929 -180 0 0 0.566929 0.566929 L46.91 196.64 a0.566929 0.566929 0
							 0 1 0.566929 0.566929 L47.48 230.09 a0.566929 0.566929 -180 0 0 0.566929 0.566929 Z" class="st1"/>
			</g>
			<g id="shape16-30" v:mID="16" v:groupContext="shape" transform="translate(158.74,-8.50394)">
				<title>Quadrat.3</title>
				<v:userDefs>
					<v:ud v:nameU="visVersion" v:val="VT0(14):26"/>
				</v:userDefs>
				<rect x="0" y="207.976" width="22.6772" height="22.6772" class="st2"/>
			</g>
			<g id="shape17-32" v:mID="17" v:groupContext="shape" transform="translate(48.189,-36.8504)">
				<title>Tabelle.17</title>
				<path d="M22.68 173.96 A34.0157 34.0157 0 0 1 90.71 173.96 A34.0157 34.0157 0 0 1 22.68 173.96 ZM0 173.96 A56.6929
							 56.6929 -180 1 0 113.39 173.96 A56.6929 56.6929 -180 0 0 0 173.96 Z" class="st6"/>
			</g>
			<g id="shape18-34" v:mID="18" v:groupContext="shape" transform="translate(29.7638,-147.402)">
				<title>Kreis.11</title>
				<v:userDefs>
					<v:ud v:nameU="visVersion" v:val="VT0(14):26"/>
				</v:userDefs>
				<path d="M0 219.31 A11.3386 11.3386 0 0 1 22.68 219.31 A11.3386 11.3386 0 1 1 0 219.31 Z" class="st4"/>
			</g>
		</g>
	</g>
</svg>
